<svg width="522" height="201" viewBox="0 0 522 201" fill="none" xmlns="http://www.w3.org/2000/svg">
<g filter="url(#filter0_d)">
<path fill-rule="evenodd" clip-rule="evenodd" d="M83.5188 151.15C43.9579 151.15 11.8875 119.08 11.8875 79.5188C11.8875 39.9579 43.9579 7.8875 83.5188 7.8875C123.08 7.8875 155.15 39.9579 155.15 79.5188C155.15 119.08 123.08 151.15 83.5188 151.15ZM83.5188 157.038C40.7063 157.038 6 122.331 6 79.5188C6 36.7063 40.7063 2 83.5188 2C126.331 2 161.038 36.7063 161.038 79.5188C161.038 122.331 126.331 157.038 83.5188 157.038Z" fill="white"/>
<path d="M39.6775 94.5622C27.6565 106.217 32.1052 124.01 38.7644 134.3C-2.928 69.8745 36.0268 28.3865 67.9878 16.7618C73.8516 16.1227 73.2652 16.1867 76.9708 22.9671C87.3464 41.9523 54.7039 79.9933 39.6775 94.5622Z" fill="white"/>
<path d="M130.189 110.919H100.691L95.5391 127.6H72.541L105.29 38.3063H125.529L158.523 127.6H135.402L130.189 110.919ZM105.842 94.2989H125.038L115.409 63.3282L105.842 94.2989Z" fill="white"/>
<path d="M223.274 80.2489C223.274 87.5337 220.385 93.6043 214.608 98.4609C208.914 103.234 201.085 105.662 191.121 105.746C190.953 107.253 190.869 108.132 190.869 108.383C190.869 108.634 191.288 108.928 192.125 109.262C192.963 109.597 194.637 110.184 197.149 111.021C209.04 115.208 216.701 118.85 220.134 121.948C223.651 124.962 225.409 128.312 225.409 131.996C225.409 137.774 222.437 142.212 216.492 145.31C210.547 148.492 202.76 150.082 193.13 150.082C188.525 150.082 183.71 149.706 178.686 148.952C173.662 148.282 168.429 147.236 162.986 145.812L165.121 130.991C180.696 133.42 191.623 134.634 197.903 134.634C204.267 134.634 207.449 133.964 207.449 132.624C207.449 131.703 200.289 128.73 185.971 123.706C179.691 121.446 176.216 120.064 175.546 119.562C174.96 119.059 174.667 118.473 174.667 117.803C174.667 116.464 176.3 111.774 179.565 103.736C167.508 99.5494 161.479 91.3435 161.479 79.1185C161.479 74.2619 162.4 70.0334 164.242 66.4329C166.084 62.8323 168.638 60.0273 171.904 58.0177C178.268 54.0822 186.306 52.1145 196.019 52.1145L227.921 53.6216V64.9257L220.134 66.1817C222.228 70.7033 223.274 75.3923 223.274 80.2489ZM192.879 91.5529C198.071 91.5529 201.504 90.6318 203.178 88.7897C204.937 86.9475 205.816 83.1377 205.816 77.3601C205.816 71.5825 205.355 68.2331 204.434 67.3121C203.513 66.391 200.122 65.9305 194.261 65.9305C188.483 65.9305 184.589 66.7259 182.58 68.3169C180.654 69.8241 179.691 73.2153 179.691 78.4905C179.691 83.6819 180.57 87.1569 182.329 88.9153C184.171 90.6737 187.688 91.5529 192.879 91.5529Z" fill="white"/>
<path d="M257.868 59.0225C259.292 57.9339 261.762 56.5105 265.279 54.752C268.879 52.9937 272.229 52.1145 275.327 52.1145C278.509 52.1145 281.021 52.575 282.863 53.496L281.355 70.3265C279.011 70.0753 276.708 69.9497 274.447 69.9497C268.837 69.9497 263.604 71.4569 258.747 74.4713V127.6H239.279V53.7473H251.337L253.849 61.5345H254.603C255.44 60.8646 256.529 60.0273 257.868 59.0225Z" fill="white"/>
<path d="M296.765 62.0369C301.789 55.4219 310.162 52.1145 321.885 52.1145C333.608 52.1145 341.897 55.3801 346.754 61.9113C351.694 68.4425 354.164 78.0299 354.164 90.6737C354.164 103.317 351.694 112.905 346.754 119.436C341.897 125.967 333.608 129.233 321.885 129.233C310.162 129.233 301.789 125.967 296.765 119.436C291.825 112.821 289.355 103.234 289.355 90.6737C289.355 78.1136 291.825 68.5681 296.765 62.0369ZM334.319 90.6737C334.319 81.128 333.44 74.8062 331.682 71.7081C330.007 68.5262 326.7 66.9353 321.759 66.9353C316.903 66.9353 313.595 68.5262 311.837 71.7081C310.079 74.8899 309.199 81.2118 309.199 90.6737C309.199 100.136 310.079 106.457 311.837 109.639C313.595 112.821 316.903 114.412 321.759 114.412C326.7 114.412 330.007 112.863 331.682 109.765C333.44 106.583 334.319 100.219 334.319 90.6737Z" fill="white"/>
<path d="M372.414 89.2921V39.8056H387.11V85.9009C387.11 95.0278 387.57 101.726 388.491 105.997C389.496 110.184 391.045 112.947 393.138 114.286C395.232 115.626 398.581 116.296 403.186 116.296C407.876 116.212 411.225 115.542 413.234 114.286C415.328 112.947 416.835 110.184 417.756 105.997C418.761 101.81 419.263 95.1115 419.263 85.9009V39.8056H433.958V88.1617C433.958 104.071 431.279 114.956 425.92 120.818C423.157 123.916 419.975 126.093 416.374 127.349C412.774 128.605 408.378 129.233 403.186 129.233C392.804 129.233 385.058 126.302 379.95 120.441C374.926 114.58 372.414 104.197 372.414 89.2921Z" fill="white"/>
<path d="M458.274 39.9313C470.08 38.759 480.338 38.1729 489.046 38.1729C497.754 38.1729 504.327 40.7267 508.765 45.8345C513.203 50.9422 515.422 58.4363 515.422 68.3169C515.422 80.3745 512.407 88.7478 506.379 93.4369C501.187 97.6235 494.698 99.7169 486.911 99.7169L472.969 99.0889V127.6H458.274L458.776 86.78L458.274 39.9313ZM472.969 86.0265C477.826 86.8638 482.891 87.2825 488.167 87.2825C493.442 87.2825 496.749 86.1102 498.089 83.7657C499.429 81.3374 500.099 75.8529 500.099 67.3121C500.099 58.6875 498.926 53.4961 496.582 51.7376C495.075 50.4817 491.809 49.8537 486.785 49.8537C481.761 49.8537 477.156 50.1886 472.969 50.8585V86.0265Z" fill="white"/>
<path d="M150.625 107.975H123.75L137.978 160.039L180.662 188.438L150.625 107.975Z" fill="white"/>
<path fill-rule="evenodd" clip-rule="evenodd" d="M122.465 106.994H151.306L182.641 190.933L137.128 160.652L122.465 106.994ZM125.035 108.956L138.828 159.426L178.684 185.942L149.944 108.956H125.035Z" fill="white"/>
<path d="M222.578 160.99L222.687 152.143L222.578 141.758H225.82L225.71 150.275L225.82 160.99H222.578Z" fill="white"/>
<path d="M231.08 160.963V144.89H233.169L233.526 146.483H233.663C235.916 145.183 237.812 144.533 239.35 144.533C240.907 144.533 241.961 145.036 242.51 146.044C243.078 147.051 243.362 148.489 243.362 150.357V160.963H240.175V151.154C240.175 149.524 240.065 148.498 239.845 148.077C239.643 147.637 239.186 147.417 238.471 147.417C237.757 147.417 236.988 147.564 236.163 147.857C235.357 148.15 234.725 148.443 234.268 148.736V160.963H231.08Z" fill="white"/>
<path d="M248.42 155.742V148.187H246.58V146.209L248.558 145.824L249.19 142.032H251.635V145.769H254.85V148.242H251.607V155.88C251.607 157.107 251.681 157.867 251.827 158.16C251.992 158.435 252.404 158.572 253.064 158.572L254.822 158.49V161.045C254.199 161.192 253.476 161.265 252.652 161.265C251.205 161.265 250.133 160.889 249.437 160.138C248.759 159.369 248.42 157.904 248.42 155.742Z" fill="white"/>
<path d="M264.68 161.32C260.101 161.32 257.811 158.526 257.811 152.94C257.811 147.335 260.082 144.533 264.625 144.533C266.658 144.533 268.178 145.119 269.186 146.291C270.211 147.463 270.724 149.405 270.724 152.116V154.094H261.136C261.136 156.127 261.484 157.464 262.18 158.105C262.637 158.508 263.251 158.71 264.02 158.71C265.504 158.71 267.07 158.435 268.719 157.885L269.57 157.583L270.34 160.001C268.545 160.88 266.658 161.32 264.68 161.32ZM267.482 150.742C267.482 150.632 267.473 150.394 267.455 150.028C267.436 149.643 267.418 149.414 267.4 149.341C267.382 149.249 267.345 149.066 267.29 148.791C267.253 148.498 267.198 148.324 267.125 148.269C267.07 148.196 266.988 148.068 266.878 147.884C266.786 147.701 266.676 147.591 266.548 147.555C266.42 147.5 266.273 147.427 266.108 147.335C265.852 147.207 265.358 147.143 264.625 147.143C263.91 147.143 263.315 147.225 262.839 147.39C262.381 147.555 262.024 147.848 261.767 148.269C261.529 148.69 261.374 149.148 261.3 149.643C261.227 150.137 261.181 150.824 261.163 151.704L267.482 151.566V150.742Z" fill="white"/>
<path d="M274.54 160.963V140.164H277.727V160.963H274.54Z" fill="white"/>
<path d="M282.652 160.963V144.89H285.839V160.963H282.652ZM282.405 142.747V140.164H286.087V142.747H282.405Z" fill="white"/>
<path d="M290.306 162.584C293.493 163.06 295.828 163.298 297.312 163.298C298.814 163.298 299.565 163.069 299.565 162.611C299.565 162.318 299.318 162.025 298.823 161.732C298.347 161.439 297.156 160.898 295.252 160.111C293.347 159.305 292.394 158.884 292.394 158.847L293.521 155.687C290.883 154.826 289.564 153.068 289.564 150.412C289.564 148.342 290.196 146.85 291.46 145.934C292.742 145 294.409 144.533 296.46 144.533C297.596 144.533 299.702 144.642 302.78 144.862V146.785L301.021 147.06C301.571 148.269 301.846 149.414 301.846 150.495C301.846 152.106 301.278 153.416 300.142 154.424C299.025 155.431 297.477 155.944 295.499 155.962C295.426 156.676 295.389 157.079 295.389 157.171C295.389 157.263 296.231 157.656 297.917 158.352C299.62 159.048 300.765 159.662 301.351 160.193C301.955 160.706 302.258 161.366 302.258 162.171C302.258 163.344 301.662 164.25 300.472 164.892C299.3 165.551 297.743 165.881 295.801 165.881C294.024 165.881 292.33 165.679 290.718 165.276L289.949 165.084L290.306 162.584ZM295.966 147.06C294.665 147.06 293.75 147.289 293.218 147.747C292.706 148.205 292.449 149.048 292.449 150.275C292.449 151.502 292.687 152.335 293.163 152.775C293.658 153.215 294.482 153.434 295.636 153.434C296.808 153.434 297.624 153.224 298.081 152.803C298.539 152.363 298.768 151.557 298.768 150.385C298.768 149.212 298.704 148.416 298.576 147.994C298.448 147.555 298.356 147.317 298.301 147.28C298.191 147.207 297.413 147.133 295.966 147.06Z" fill="white"/>
<path d="M312.037 161.32C307.457 161.32 305.168 158.526 305.168 152.94C305.168 147.335 307.439 144.533 311.982 144.533C314.015 144.533 315.535 145.119 316.543 146.291C317.568 147.463 318.081 149.405 318.081 152.116V154.094H308.492C308.492 156.127 308.84 157.464 309.536 158.105C309.994 158.508 310.608 158.71 311.377 158.71C312.861 158.71 314.427 158.435 316.075 157.885L316.927 157.583L317.696 160.001C315.901 160.88 314.015 161.32 312.037 161.32ZM314.839 150.742C314.839 150.632 314.83 150.394 314.812 150.028C314.793 149.643 314.775 149.414 314.757 149.341C314.738 149.249 314.702 149.066 314.647 148.791C314.61 148.498 314.555 148.324 314.482 148.269C314.427 148.196 314.344 148.068 314.235 147.884C314.143 147.701 314.033 147.591 313.905 147.555C313.777 147.5 313.63 147.427 313.465 147.335C313.209 147.207 312.714 147.143 311.982 147.143C311.267 147.143 310.672 147.225 310.196 147.39C309.738 147.555 309.381 147.848 309.124 148.269C308.886 148.69 308.73 149.148 308.657 149.643C308.584 150.137 308.538 150.824 308.52 151.704L314.839 151.566V150.742ZM307.586 143.186L306.679 141.813L310.69 138.873H312.366L316.405 141.813L315.444 143.186L311.624 141.29H311.432L307.586 143.186Z" fill="white"/>
<path d="M322.199 160.963V144.89H324.287L324.644 146.483H324.781C327.034 145.183 328.93 144.533 330.469 144.533C332.026 144.533 333.079 145.036 333.628 146.044C334.196 147.051 334.48 148.489 334.48 150.357V160.963H331.293V151.154C331.293 149.524 331.183 148.498 330.963 148.077C330.762 147.637 330.304 147.417 329.589 147.417C328.875 147.417 328.106 147.564 327.282 147.857C326.476 148.15 325.844 148.443 325.386 148.736V160.963H322.199Z" fill="white"/>
<path d="M349.512 157.418C349.714 158.041 350.025 158.82 350.446 159.754C350.281 159.864 350.052 160.01 349.759 160.193C349.485 160.358 348.889 160.587 347.973 160.88C347.058 161.173 346.123 161.32 345.171 161.32C343.065 161.32 341.407 160.633 340.198 159.259C338.989 157.885 338.385 155.761 338.385 152.885C338.385 149.698 339.117 147.472 340.583 146.209C341.901 145.091 343.642 144.533 345.803 144.533C347.232 144.533 348.642 144.707 350.034 145.055L349.677 147.555C347.68 147.298 346.151 147.17 345.089 147.17C344.026 147.17 343.275 147.39 342.836 147.83C342.066 148.654 341.682 150.412 341.682 153.105C341.682 155.797 342.204 157.528 343.248 158.298C343.632 158.572 344.127 158.71 344.731 158.71C345.354 158.71 346.059 158.6 346.847 158.38C347.635 158.16 348.523 157.84 349.512 157.418Z" fill="white"/>
<path d="M354.023 160.963V144.89H357.21V160.963H354.023ZM353.776 142.747V140.164H357.457V142.747H353.776Z" fill="white"/>
<path d="M365.798 161.32C364.387 161.32 363.252 160.88 362.391 160.001C361.548 159.103 361.127 157.775 361.127 156.017C361.127 154.24 361.695 152.949 362.831 152.143C363.985 151.337 365.642 150.934 367.804 150.934L370.441 150.962C370.441 149.185 370.295 148.113 370.002 147.747C369.727 147.362 369.177 147.17 368.353 147.17C367.529 147.17 366.604 147.271 365.578 147.472C364.571 147.674 363.499 147.985 362.364 148.407L361.512 146.071C361.768 145.961 362.107 145.824 362.528 145.659C362.968 145.476 363.774 145.247 364.946 144.972C366.118 144.679 367.19 144.533 368.161 144.533C371.806 144.533 373.628 146.511 373.628 150.467V160.963H371.595L371.155 159.232H371.018C370.817 159.397 370.542 159.598 370.194 159.836C369.864 160.056 369.232 160.358 368.298 160.743C367.382 161.127 366.549 161.32 365.798 161.32ZM370.441 153.544C369.69 153.434 368.674 153.379 367.391 153.379C366.109 153.379 365.312 153.535 365.001 153.847C364.598 154.213 364.397 154.918 364.397 155.962C364.397 156.988 364.525 157.693 364.781 158.078C365.056 158.444 365.486 158.627 366.073 158.627C366.677 158.627 367.336 158.526 368.051 158.325C368.783 158.105 369.58 157.794 370.441 157.391V153.544Z" fill="white"/>
<path d="M385.037 160.963V144.89H387.125L387.482 146.483H387.62C389.873 145.183 391.768 144.533 393.307 144.533C394.864 144.533 395.917 145.036 396.467 146.044C397.034 147.051 397.318 148.489 397.318 150.357V160.963H394.131V151.154C394.131 149.524 394.021 148.498 393.802 148.077C393.6 147.637 393.142 147.417 392.428 147.417C391.713 147.417 390.944 147.564 390.12 147.857C389.314 148.15 388.682 148.443 388.224 148.736V160.963H385.037Z" fill="white"/>
<path d="M414.246 152.94C414.246 155.687 413.752 157.775 412.763 159.204C411.773 160.615 410.097 161.32 407.735 161.32C405.39 161.32 403.714 160.615 402.707 159.204C401.718 157.775 401.223 155.687 401.223 152.94C401.223 150.192 401.718 148.104 402.707 146.676C403.714 145.247 405.39 144.533 407.735 144.533C410.097 144.533 411.773 145.247 412.763 146.676C413.752 148.104 414.246 150.192 414.246 152.94ZM405.179 157.666C405.637 158.417 406.498 158.792 407.762 158.792C409.026 158.792 409.878 158.417 410.317 157.666C410.757 156.896 410.977 155.321 410.977 152.94C410.977 150.54 410.757 148.965 410.317 148.214C409.878 147.463 409.026 147.088 407.762 147.088C406.498 147.088 405.637 147.463 405.179 148.214C404.74 148.965 404.52 150.54 404.52 152.94C404.52 155.321 404.74 156.896 405.179 157.666Z" fill="white"/>
<path d="M431.308 161.32C429.074 161.32 427.324 160.541 426.061 158.984C424.797 157.427 424.165 154.955 424.165 151.566C424.165 146.932 425.191 143.928 427.242 142.554C427.901 142.115 428.588 141.813 429.303 141.648C430.017 141.483 431.07 141.4 432.462 141.4C433.873 141.4 435.329 141.584 436.831 141.95L436.474 144.642C434.752 144.386 433.158 144.258 431.693 144.258C430.246 144.258 429.321 144.468 428.918 144.89C428.021 145.824 427.572 148.077 427.572 151.649C427.572 153.315 427.727 154.707 428.039 155.825C428.35 156.924 428.717 157.666 429.138 158.05C429.577 158.417 430.209 158.6 431.034 158.6C431.876 158.6 432.755 158.472 433.671 158.215C434.587 157.959 435.576 157.583 436.639 157.089L437.628 159.534C437.426 159.662 437.142 159.827 436.776 160.028C436.428 160.23 435.704 160.496 434.605 160.825C433.506 161.155 432.407 161.32 431.308 161.32Z" fill="white"/>
<path d="M444.654 161.32C443.244 161.32 442.108 160.88 441.247 160.001C440.405 159.103 439.984 157.775 439.984 156.017C439.984 154.24 440.551 152.949 441.687 152.143C442.841 151.337 444.499 150.934 446.66 150.934L449.298 150.962C449.298 149.185 449.151 148.113 448.858 147.747C448.583 147.362 448.034 147.17 447.21 147.17C446.385 147.17 445.46 147.271 444.435 147.472C443.427 147.674 442.356 147.985 441.22 148.407L440.368 146.071C440.625 145.961 440.964 145.824 441.385 145.659C441.824 145.476 442.63 145.247 443.803 144.972C444.975 144.679 446.046 144.533 447.017 144.533C450.662 144.533 452.485 146.511 452.485 150.467V160.963H450.452L450.012 159.232H449.875C449.673 159.397 449.398 159.598 449.05 159.836C448.721 160.056 448.089 160.358 447.155 160.743C446.239 161.127 445.405 161.32 444.654 161.32ZM449.298 153.544C448.547 153.434 447.53 153.379 446.248 153.379C444.966 153.379 444.169 153.535 443.858 153.847C443.455 154.213 443.253 154.918 443.253 155.962C443.253 156.988 443.381 157.693 443.638 158.078C443.913 158.444 444.343 158.627 444.929 158.627C445.534 158.627 446.193 158.526 446.907 158.325C447.64 158.105 448.437 157.794 449.298 157.391V153.544Z" fill="white"/>
<path d="M457.427 160.963V144.89H459.515L459.872 146.483H460.01C462.226 145.164 464.122 144.505 465.697 144.505C467.272 144.505 468.353 145.201 468.939 146.593C469.654 146.154 470.212 145.824 470.615 145.604C471.018 145.366 471.595 145.128 472.346 144.89C473.097 144.633 473.811 144.505 474.489 144.505C475.973 144.505 477.017 145.018 477.621 146.044C478.226 147.051 478.528 148.507 478.528 150.412V160.963H475.341V151.181C475.341 149.661 475.231 148.654 475.011 148.159C474.81 147.646 474.343 147.39 473.61 147.39C472.896 147.39 472.136 147.546 471.33 147.857C470.542 148.168 469.919 148.471 469.461 148.764C469.535 149.496 469.571 150.064 469.571 150.467V160.963H466.384V151.127C466.384 149.093 466.146 147.921 465.67 147.61C465.45 147.463 465.111 147.39 464.653 147.39C463.518 147.39 462.171 147.82 460.614 148.681V160.963H457.427Z" fill="white"/>
<path d="M482.99 165.523V144.89H485.078L485.463 146.538H485.6C485.637 146.52 485.793 146.41 486.067 146.209C486.36 146.007 486.58 145.86 486.727 145.769C486.892 145.659 487.139 145.512 487.469 145.329C487.817 145.146 488.128 145.009 488.403 144.917C489.172 144.661 489.877 144.533 490.518 144.533C492.112 144.533 493.367 145.201 494.282 146.538C495.198 147.857 495.656 149.89 495.656 152.638C495.656 158.426 493.568 161.32 489.392 161.32C488.604 161.32 487.533 161.21 486.177 160.99V165.523H482.99ZM486.177 158.16C487.423 158.49 488.485 158.655 489.364 158.655C490.244 158.655 490.857 158.526 491.205 158.27C491.974 157.666 492.359 155.697 492.359 152.363C492.359 151.136 492.322 150.174 492.249 149.478C492.194 148.782 492.057 148.278 491.837 147.967C491.636 147.656 491.434 147.472 491.233 147.417C491.049 147.362 490.701 147.335 490.189 147.335C489.694 147.335 489.099 147.445 488.403 147.665C487.725 147.884 486.983 148.205 486.177 148.626V158.16Z" fill="white"/>
<path d="M512.099 152.94C512.099 155.687 511.604 157.775 510.615 159.204C509.626 160.615 507.95 161.32 505.587 161.32C503.243 161.32 501.567 160.615 500.56 159.204C499.57 157.775 499.076 155.687 499.076 152.94C499.076 150.192 499.57 148.104 500.56 146.676C501.567 145.247 503.243 144.533 505.587 144.533C507.95 144.533 509.626 145.247 510.615 146.676C511.604 148.104 512.099 150.192 512.099 152.94ZM503.032 157.666C503.49 158.417 504.351 158.792 505.615 158.792C506.879 158.792 507.731 158.417 508.17 157.666C508.61 156.896 508.83 155.321 508.83 152.94C508.83 150.54 508.61 148.965 508.17 148.214C507.731 147.463 506.879 147.088 505.615 147.088C504.351 147.088 503.49 147.463 503.032 148.214C502.593 148.965 502.373 150.54 502.373 152.94C502.373 155.321 502.593 156.896 503.032 157.666Z" fill="white"/>
<path fill-rule="evenodd" clip-rule="evenodd" d="M62.0155 42.2904C59.1662 46.5023 53.4903 53.6572 41.7307 68.3567C23.1701 91.5575 28.2563 114.01 32.9831 122.203L31.2832 123.184C26.1976 114.369 21.0788 91.03 40.1982 67.1307C51.9886 52.3927 57.597 45.3195 60.39 41.1908C61.779 39.1375 62.4314 37.8693 62.8052 36.7893C63.1196 35.8812 63.2475 35.087 63.4268 33.9731C63.4638 33.7432 63.503 33.4996 63.5465 33.2386L65.4823 33.5613C65.4434 33.7945 65.4072 34.0207 65.3719 34.2415C65.1923 35.3635 65.0347 36.3483 64.6598 37.4313C64.2057 38.7431 63.4475 40.1734 62.0155 42.2904Z" fill="#00E925"/>
</g>
<defs>
<filter id="filter0_d" x="0" y="0" width="521.422" height="200.933" filterUnits="userSpaceOnUse" color-interpolation-filters="sRGB">
<feFlood flood-opacity="0" result="BackgroundImageFix"/>
<feColorMatrix in="SourceAlpha" type="matrix" values="0 0 0 0 0 0 0 0 0 0 0 0 0 0 0 0 0 0 127 0"/>
<feOffset dy="4"/>
<feGaussianBlur stdDeviation="3"/>
<feColorMatrix type="matrix" values="0 0 0 0 0 0 0 0 0 0 0 0 0 0 0 0 0 0 0.25 0"/>
<feBlend mode="normal" in2="BackgroundImageFix" result="effect1_dropShadow"/>
<feBlend mode="normal" in="SourceGraphic" in2="effect1_dropShadow" result="shape"/>
</filter>
</defs>
</svg>
