<svg width="260" height="97" viewBox="0 0 260 97" fill="none" xmlns="http://www.w3.org/2000/svg">
<path fill-rule="evenodd" clip-rule="evenodd" d="M39.5 76C19.3416 76 3 59.6584 3 39.5C3 19.3416 19.3416 3 39.5 3C59.6584 3 76 19.3416 76 39.5C76 59.6584 59.6584 76 39.5 76ZM39.5 79C17.6848 79 0 61.3152 0 39.5C0 17.6848 17.6848 0 39.5 0C61.3152 0 79 17.6848 79 39.5C79 61.3152 61.3152 79 39.5 79Z" fill="white"/>
<path d="M17.1605 47.1654C11.0352 53.1043 13.302 62.1705 16.6952 67.4139C-4.5493 34.5857 15.3003 13.4453 31.5861 7.52191C34.5741 7.19628 34.2753 7.2289 36.1635 10.6839C41.4504 20.3578 24.8172 39.7418 17.1605 47.1654Z" fill="white"/>
<path d="M63.2812 55.5H48.25L45.625 64H33.9062L50.5938 18.5H60.9062L77.7188 64H65.9375L63.2812 55.5ZM50.875 47.0313H60.6562L55.75 31.25L50.875 47.0313Z" fill="white"/>
<path d="M110.713 39.872C110.713 43.584 109.241 46.6773 106.297 49.152C103.396 51.584 99.4063 52.8213 94.329 52.864C94.2437 53.632 94.201 54.08 94.201 54.208C94.201 54.336 94.4143 54.4853 94.841 54.656C95.2677 54.8267 96.121 55.1253 97.401 55.552C103.46 57.6853 107.364 59.5413 109.113 61.12C110.905 62.656 111.801 64.3627 111.801 66.24C111.801 69.184 110.286 71.4453 107.257 73.024C104.228 74.6453 100.26 75.456 95.353 75.456C93.0063 75.456 90.553 75.264 87.993 74.88C85.433 74.5387 82.7663 74.0053 79.993 73.28L81.081 65.728C89.017 66.9653 94.585 67.584 97.785 67.584C101.028 67.584 102.649 67.2427 102.649 66.56C102.649 66.0907 99.001 64.576 91.705 62.016C88.505 60.864 86.7343 60.16 86.393 59.904C86.0943 59.648 85.945 59.3493 85.945 59.008C85.945 58.3253 86.777 55.936 88.441 51.84C82.297 49.7067 79.225 45.5253 79.225 39.296C79.225 36.8213 79.6943 34.6667 80.633 32.832C81.5717 30.9973 82.873 29.568 84.537 28.544C87.7797 26.5387 91.8757 25.536 96.825 25.536L113.081 26.304V32.064L109.113 32.704C110.18 35.008 110.713 37.3973 110.713 39.872ZM95.225 45.632C97.8703 45.632 99.6197 45.1627 100.473 44.224C101.369 43.2853 101.817 41.344 101.817 38.4C101.817 35.456 101.582 33.7493 101.113 33.28C100.644 32.8107 98.9157 32.576 95.929 32.576C92.985 32.576 91.001 32.9813 89.977 33.792C88.9957 34.56 88.505 36.288 88.505 38.976C88.505 41.6213 88.953 43.392 89.849 44.288C90.7877 45.184 92.5797 45.632 95.225 45.632Z" fill="white"/>
<path d="M128.34 29.056C129.066 28.5013 130.325 27.776 132.117 26.88C133.951 25.984 135.658 25.536 137.237 25.536C138.858 25.536 140.138 25.7707 141.076 26.24L140.309 34.816C139.114 34.688 137.94 34.624 136.788 34.624C133.93 34.624 131.263 35.392 128.788 36.928V64H118.868V26.368H125.012L126.293 30.336H126.676C127.103 29.9947 127.658 29.568 128.34 29.056Z" fill="white"/>
<path d="M148.16 30.592C150.72 27.2213 154.987 25.536 160.961 25.536C166.934 25.536 171.158 27.2 173.633 30.528C176.15 33.856 177.409 38.7413 177.409 45.184C177.409 51.6267 176.15 56.512 173.633 59.84C171.158 63.168 166.934 64.832 160.961 64.832C154.987 64.832 150.72 63.168 148.16 59.84C145.643 56.4693 144.384 51.584 144.384 45.184C144.384 38.784 145.643 33.92 148.16 30.592ZM167.297 45.184C167.297 40.32 166.848 37.0987 165.952 35.52C165.099 33.8987 163.414 33.088 160.896 33.088C158.422 33.088 156.736 33.8987 155.84 35.52C154.945 37.1413 154.496 40.3627 154.496 45.184C154.496 50.0053 154.945 53.2267 155.84 54.848C156.736 56.4693 158.422 57.28 160.896 57.28C163.414 57.28 165.099 56.4907 165.952 54.912C166.848 53.2907 167.297 50.048 167.297 45.184Z" fill="white"/>
<path d="M186.708 44.48V19.264H194.196V42.752C194.196 47.4027 194.431 50.816 194.9 52.992C195.412 55.1253 196.201 56.5333 197.268 57.216C198.335 57.8987 200.041 58.24 202.388 58.24C204.777 58.1973 206.484 57.856 207.508 57.216C208.575 56.5333 209.343 55.1253 209.812 52.992C210.324 50.8587 210.58 47.4453 210.58 42.752V19.264H218.068V43.904C218.068 52.0107 216.703 57.5573 213.972 60.544C212.564 62.1227 210.943 63.232 209.108 63.872C207.273 64.512 205.033 64.832 202.388 64.832C197.097 64.832 193.151 63.3387 190.548 60.352C187.988 57.3653 186.708 52.0747 186.708 44.48Z" fill="white"/>
<path d="M230.458 19.328C236.474 18.7307 241.701 18.432 246.138 18.432C250.575 18.432 253.925 19.7333 256.186 22.336C258.447 24.9387 259.578 28.7573 259.578 33.792C259.578 39.936 258.042 44.2027 254.97 46.592C252.325 48.7253 249.018 49.792 245.05 49.792L237.946 49.472V64H230.458L230.714 43.2L230.458 19.328ZM237.946 42.816C240.421 43.2427 243.002 43.456 245.69 43.456C248.378 43.456 250.063 42.8587 250.746 41.664C251.429 40.4267 251.77 37.632 251.77 33.28C251.77 28.8853 251.173 26.24 249.978 25.344C249.21 24.704 247.546 24.384 244.986 24.384C242.426 24.384 240.079 24.5547 237.946 24.896V42.816Z" fill="white"/>
<path d="M73.6944 54H60L67.25 80.5294L89 95L73.6944 54Z" fill="white"/>
<path fill-rule="evenodd" clip-rule="evenodd" d="M59.345 53.5H74.0415L90.0083 96.2714L66.8171 80.8419L59.345 53.5ZM60.655 54.5L67.6829 80.2169L87.9917 93.7286L73.3474 54.5H60.655Z" fill="white"/>
<path d="M110.358 81.014L110.414 76.506L110.358 71.214H112.01L111.954 75.554L112.01 81.014H110.358Z" fill="white"/>
<path d="M114.691 81V72.81H115.755L115.937 73.622H116.007C117.155 72.9594 118.121 72.628 118.905 72.628C119.698 72.628 120.235 72.8847 120.515 73.398C120.804 73.9114 120.949 74.644 120.949 75.596V81H119.325V76.002C119.325 75.1714 119.269 74.6487 119.157 74.434C119.054 74.21 118.821 74.098 118.457 74.098C118.093 74.098 117.701 74.1727 117.281 74.322C116.87 74.4714 116.548 74.6207 116.315 74.77V81H114.691Z" fill="white"/>
<path d="M123.526 78.34V74.49H122.588V73.482L123.596 73.286L123.918 71.354H125.164V73.258H126.802V74.518H125.15V78.41C125.15 79.0354 125.188 79.4227 125.262 79.572C125.346 79.712 125.556 79.782 125.892 79.782L126.788 79.74V81.042C126.471 81.1167 126.102 81.154 125.682 81.154C124.945 81.154 124.399 80.9627 124.044 80.58C123.699 80.188 123.526 79.4414 123.526 78.34Z" fill="white"/>
<path d="M131.811 81.182C129.478 81.182 128.311 79.7587 128.311 76.912C128.311 74.056 129.469 72.628 131.783 72.628C132.819 72.628 133.594 72.9267 134.107 73.524C134.63 74.1214 134.891 75.1107 134.891 76.492V77.5H130.005C130.005 78.536 130.183 79.2174 130.537 79.544C130.771 79.7494 131.083 79.852 131.475 79.852C132.231 79.852 133.029 79.712 133.869 79.432L134.303 79.278L134.695 80.51C133.781 80.958 132.819 81.182 131.811 81.182ZM133.239 75.792C133.239 75.736 133.235 75.6147 133.225 75.428C133.216 75.232 133.207 75.1154 133.197 75.078C133.188 75.0314 133.169 74.938 133.141 74.798C133.123 74.6487 133.095 74.56 133.057 74.532C133.029 74.4947 132.987 74.4294 132.931 74.336C132.885 74.2427 132.829 74.1867 132.763 74.168C132.698 74.14 132.623 74.1027 132.539 74.056C132.409 73.9907 132.157 73.958 131.783 73.958C131.419 73.958 131.116 74 130.873 74.084C130.64 74.168 130.458 74.3174 130.327 74.532C130.206 74.7467 130.127 74.98 130.089 75.232C130.052 75.484 130.029 75.834 130.019 76.282L133.239 76.212V75.792Z" fill="white"/>
<path d="M136.836 81V70.402H138.46V81H136.836Z" fill="white"/>
<path d="M140.969 81V72.81H142.593V81H140.969ZM140.843 71.718V70.402H142.719V71.718H140.843Z" fill="white"/>
<path d="M144.869 81.826C146.493 82.0687 147.683 82.19 148.439 82.19C149.205 82.19 149.587 82.0734 149.587 81.84C149.587 81.6907 149.461 81.5414 149.209 81.392C148.967 81.2427 148.36 80.9674 147.389 80.566C146.419 80.1554 145.933 79.9407 145.933 79.922L146.507 78.312C145.163 77.8734 144.491 76.9774 144.491 75.624C144.491 74.5694 144.813 73.8087 145.457 73.342C146.111 72.866 146.96 72.628 148.005 72.628C148.584 72.628 149.657 72.684 151.225 72.796V73.776L150.329 73.916C150.609 74.532 150.749 75.1154 150.749 75.666C150.749 76.4874 150.46 77.1547 149.881 77.668C149.312 78.1814 148.523 78.4427 147.515 78.452C147.478 78.816 147.459 79.0214 147.459 79.068C147.459 79.1147 147.889 79.3154 148.747 79.67C149.615 80.0247 150.199 80.3374 150.497 80.608C150.805 80.8694 150.959 81.2054 150.959 81.616C150.959 82.2134 150.656 82.6754 150.049 83.002C149.452 83.338 148.659 83.506 147.669 83.506C146.764 83.506 145.901 83.4034 145.079 83.198L144.687 83.1L144.869 81.826ZM147.753 73.916C147.091 73.916 146.624 74.0327 146.353 74.266C146.092 74.4994 145.961 74.9287 145.961 75.554C145.961 76.1794 146.083 76.604 146.325 76.828C146.577 77.052 146.997 77.164 147.585 77.164C148.183 77.164 148.598 77.0567 148.831 76.842C149.065 76.618 149.181 76.2074 149.181 75.61C149.181 75.0127 149.149 74.6067 149.083 74.392C149.018 74.168 148.971 74.0467 148.943 74.028C148.887 73.9907 148.491 73.9534 147.753 73.916Z" fill="white"/>
<path d="M155.942 81.182C153.609 81.182 152.442 79.7587 152.442 76.912C152.442 74.056 153.6 72.628 155.914 72.628C156.95 72.628 157.725 72.9267 158.238 73.524C158.761 74.1214 159.022 75.1107 159.022 76.492V77.5H154.136C154.136 78.536 154.314 79.2174 154.668 79.544C154.902 79.7494 155.214 79.852 155.606 79.852C156.362 79.852 157.16 79.712 158 79.432L158.434 79.278L158.826 80.51C157.912 80.958 156.95 81.182 155.942 81.182ZM157.37 75.792C157.37 75.736 157.366 75.6147 157.356 75.428C157.347 75.232 157.338 75.1154 157.328 75.078C157.319 75.0314 157.3 74.938 157.272 74.798C157.254 74.6487 157.226 74.56 157.188 74.532C157.16 74.4947 157.118 74.4294 157.062 74.336C157.016 74.2427 156.96 74.1867 156.894 74.168C156.829 74.14 156.754 74.1027 156.67 74.056C156.54 73.9907 156.288 73.958 155.914 73.958C155.55 73.958 155.247 74 155.004 74.084C154.771 74.168 154.589 74.3174 154.458 74.532C154.337 74.7467 154.258 74.98 154.22 75.232C154.183 75.484 154.16 75.834 154.15 76.282L157.37 76.212V75.792ZM153.674 71.942L153.212 71.242L155.256 69.744H156.11L158.168 71.242L157.678 71.942L155.732 70.976H155.634L153.674 71.942Z" fill="white"/>
<path d="M161.12 81V72.81H162.184L162.366 73.622H162.436C163.584 72.9594 164.55 72.628 165.334 72.628C166.128 72.628 166.664 72.8847 166.944 73.398C167.234 73.9114 167.378 74.644 167.378 75.596V81H165.754V76.002C165.754 75.1714 165.698 74.6487 165.586 74.434C165.484 74.21 165.25 74.098 164.886 74.098C164.522 74.098 164.13 74.1727 163.71 74.322C163.3 74.4714 162.978 74.6207 162.744 74.77V81H161.12Z" fill="white"/>
<path d="M175.038 79.194C175.141 79.5114 175.299 79.908 175.514 80.384C175.43 80.44 175.313 80.5147 175.164 80.608C175.024 80.692 174.721 80.8087 174.254 80.958C173.787 81.1074 173.311 81.182 172.826 81.182C171.753 81.182 170.908 80.832 170.292 80.132C169.676 79.432 169.368 78.3494 169.368 76.884C169.368 75.26 169.741 74.126 170.488 73.482C171.16 72.9127 172.047 72.628 173.148 72.628C173.876 72.628 174.595 72.7167 175.304 72.894L175.122 74.168C174.105 74.0374 173.325 73.972 172.784 73.972C172.243 73.972 171.86 74.084 171.636 74.308C171.244 74.728 171.048 75.624 171.048 76.996C171.048 78.368 171.314 79.25 171.846 79.642C172.042 79.782 172.294 79.852 172.602 79.852C172.919 79.852 173.279 79.796 173.68 79.684C174.081 79.572 174.534 79.4087 175.038 79.194Z" fill="white"/>
<path d="M177.337 81V72.81H178.961V81H177.337ZM177.211 71.718V70.402H179.087V71.718H177.211Z" fill="white"/>
<path d="M183.337 81.182C182.618 81.182 182.039 80.958 181.601 80.51C181.171 80.0527 180.956 79.376 180.956 78.48C180.956 77.5747 181.246 76.9167 181.825 76.506C182.412 76.0954 183.257 75.89 184.358 75.89L185.702 75.904C185.702 74.9987 185.628 74.4527 185.479 74.266C185.339 74.07 185.059 73.972 184.639 73.972C184.219 73.972 183.747 74.0234 183.225 74.126C182.711 74.2287 182.165 74.3874 181.587 74.602L181.152 73.412C181.283 73.356 181.456 73.286 181.671 73.202C181.895 73.1087 182.305 72.992 182.902 72.852C183.5 72.7027 184.046 72.628 184.54 72.628C186.398 72.628 187.326 73.636 187.326 75.652V81H186.29L186.066 80.118H185.996C185.894 80.202 185.754 80.3047 185.576 80.426C185.409 80.538 185.086 80.692 184.61 80.888C184.144 81.084 183.719 81.182 183.337 81.182ZM185.702 77.22C185.32 77.164 184.802 77.136 184.148 77.136C183.495 77.136 183.089 77.2154 182.931 77.374C182.725 77.5607 182.622 77.92 182.622 78.452C182.622 78.9747 182.688 79.334 182.818 79.53C182.958 79.7167 183.178 79.81 183.477 79.81C183.785 79.81 184.12 79.7587 184.484 79.656C184.858 79.544 185.264 79.3854 185.702 79.18V77.22Z" fill="white"/>
<path d="M193.14 81V72.81H194.204L194.386 73.622H194.456C195.604 72.9594 196.57 72.628 197.354 72.628C198.147 72.628 198.684 72.8847 198.964 73.398C199.253 73.9114 199.398 74.644 199.398 75.596V81H197.774V76.002C197.774 75.1714 197.718 74.6487 197.606 74.434C197.503 74.21 197.27 74.098 196.906 74.098C196.542 74.098 196.15 74.1727 195.73 74.322C195.319 74.4714 194.997 74.6207 194.764 74.77V81H193.14Z" fill="white"/>
<path d="M208.024 76.912C208.024 78.312 207.772 79.376 207.268 80.104C206.764 80.8227 205.91 81.182 204.706 81.182C203.511 81.182 202.657 80.8227 202.144 80.104C201.64 79.376 201.388 78.312 201.388 76.912C201.388 75.512 201.64 74.448 202.144 73.72C202.657 72.992 203.511 72.628 204.706 72.628C205.91 72.628 206.764 72.992 207.268 73.72C207.772 74.448 208.024 75.512 208.024 76.912ZM203.404 79.32C203.637 79.7027 204.076 79.894 204.72 79.894C205.364 79.894 205.798 79.7027 206.022 79.32C206.246 78.928 206.358 78.1254 206.358 76.912C206.358 75.6894 206.246 74.8867 206.022 74.504C205.798 74.1214 205.364 73.93 204.72 73.93C204.076 73.93 203.637 74.1214 203.404 74.504C203.18 74.8867 203.068 75.6894 203.068 76.912C203.068 78.1254 203.18 78.928 203.404 79.32Z" fill="white"/>
<path d="M216.718 81.182C215.579 81.182 214.688 80.7854 214.044 79.992C213.4 79.1987 213.078 77.9387 213.078 76.212C213.078 73.8507 213.6 72.32 214.646 71.62C214.982 71.396 215.332 71.242 215.696 71.158C216.06 71.074 216.596 71.032 217.306 71.032C218.024 71.032 218.766 71.1254 219.532 71.312L219.35 72.684C218.472 72.5534 217.66 72.488 216.914 72.488C216.176 72.488 215.705 72.5954 215.5 72.81C215.042 73.286 214.814 74.434 214.814 76.254C214.814 77.1034 214.893 77.8127 215.052 78.382C215.21 78.942 215.397 79.32 215.612 79.516C215.836 79.7027 216.158 79.796 216.578 79.796C217.007 79.796 217.455 79.7307 217.922 79.6C218.388 79.4694 218.892 79.278 219.434 79.026L219.938 80.272C219.835 80.3374 219.69 80.4214 219.504 80.524C219.326 80.6267 218.958 80.762 218.398 80.93C217.838 81.098 217.278 81.182 216.718 81.182Z" fill="white"/>
<path d="M223.518 81.182C222.799 81.182 222.221 80.958 221.782 80.51C221.353 80.0527 221.138 79.376 221.138 78.48C221.138 77.5747 221.427 76.9167 222.006 76.506C222.594 76.0954 223.439 75.89 224.54 75.89L225.884 75.904C225.884 74.9987 225.809 74.4527 225.66 74.266C225.52 74.07 225.24 73.972 224.82 73.972C224.4 73.972 223.929 74.0234 223.406 74.126C222.893 74.2287 222.347 74.3874 221.768 74.602L221.334 73.412C221.465 73.356 221.637 73.286 221.852 73.202C222.076 73.1087 222.487 72.992 223.084 72.852C223.681 72.7027 224.227 72.628 224.722 72.628C226.579 72.628 227.508 73.636 227.508 75.652V81H226.472L226.248 80.118H226.178C226.075 80.202 225.935 80.3047 225.758 80.426C225.59 80.538 225.268 80.692 224.792 80.888C224.325 81.084 223.901 81.182 223.518 81.182ZM225.884 77.22C225.501 77.164 224.983 77.136 224.33 77.136C223.677 77.136 223.271 77.2154 223.112 77.374C222.907 77.5607 222.804 77.92 222.804 78.452C222.804 78.9747 222.869 79.334 223 79.53C223.14 79.7167 223.359 79.81 223.658 79.81C223.966 79.81 224.302 79.7587 224.666 79.656C225.039 79.544 225.445 79.3854 225.884 79.18V77.22Z" fill="white"/>
<path d="M230.027 81V72.81H231.091L231.273 73.622H231.343C232.472 72.95 233.438 72.614 234.241 72.614C235.043 72.614 235.594 72.9687 235.893 73.678C236.257 73.454 236.541 73.286 236.747 73.174C236.952 73.0527 237.246 72.9314 237.629 72.81C238.011 72.6794 238.375 72.614 238.721 72.614C239.477 72.614 240.009 72.8754 240.317 73.398C240.625 73.9114 240.779 74.6534 240.779 75.624V81H239.155V76.016C239.155 75.2414 239.099 74.728 238.987 74.476C238.884 74.2147 238.646 74.084 238.273 74.084C237.909 74.084 237.521 74.1634 237.111 74.322C236.709 74.4807 236.392 74.6347 236.159 74.784C236.196 75.1574 236.215 75.4467 236.215 75.652V81H234.591V75.988C234.591 74.952 234.469 74.3547 234.227 74.196C234.115 74.1214 233.942 74.084 233.709 74.084C233.13 74.084 232.444 74.3034 231.651 74.742V81H230.027Z" fill="white"/>
<path d="M243.052 83.324V72.81H244.116L244.312 73.65H244.382C244.401 73.6407 244.48 73.5847 244.62 73.482C244.77 73.3794 244.882 73.3047 244.956 73.258C245.04 73.202 245.166 73.1274 245.334 73.034C245.512 72.9407 245.67 72.8707 245.81 72.824C246.202 72.6934 246.562 72.628 246.888 72.628C247.7 72.628 248.34 72.9687 248.806 73.65C249.273 74.322 249.506 75.358 249.506 76.758C249.506 79.7074 248.442 81.182 246.314 81.182C245.913 81.182 245.367 81.126 244.676 81.014V83.324H243.052ZM244.676 79.572C245.311 79.74 245.852 79.824 246.3 79.824C246.748 79.824 247.061 79.7587 247.238 79.628C247.63 79.32 247.826 78.3167 247.826 76.618C247.826 75.9927 247.808 75.5027 247.77 75.148C247.742 74.7934 247.672 74.5367 247.56 74.378C247.458 74.2194 247.355 74.126 247.252 74.098C247.159 74.07 246.982 74.056 246.72 74.056C246.468 74.056 246.165 74.112 245.81 74.224C245.465 74.336 245.087 74.4994 244.676 74.714V79.572Z" fill="white"/>
<path d="M257.885 76.912C257.885 78.312 257.633 79.376 257.129 80.104C256.625 80.8227 255.771 81.182 254.567 81.182C253.372 81.182 252.518 80.8227 252.005 80.104C251.501 79.376 251.249 78.312 251.249 76.912C251.249 75.512 251.501 74.448 252.005 73.72C252.518 72.992 253.372 72.628 254.567 72.628C255.771 72.628 256.625 72.992 257.129 73.72C257.633 74.448 257.885 75.512 257.885 76.912ZM253.265 79.32C253.498 79.7027 253.937 79.894 254.581 79.894C255.225 79.894 255.659 79.7027 255.883 79.32C256.107 78.928 256.219 78.1254 256.219 76.912C256.219 75.6894 256.107 74.8867 255.883 74.504C255.659 74.1214 255.225 73.93 254.581 73.93C253.937 73.93 253.498 74.1214 253.265 74.504C253.041 74.8867 252.929 75.6894 252.929 76.912C252.929 78.1254 253.041 78.928 253.265 79.32Z" fill="white"/>
<path fill-rule="evenodd" clip-rule="evenodd" d="M28.5429 20.5301C27.0911 22.6763 24.1988 26.3221 18.2067 33.8123C8.74906 45.6344 11.3408 57.0752 13.7494 61.2501L12.8832 61.7498C10.2918 57.2581 7.68346 45.3656 17.4258 33.1876C23.4337 25.6778 26.2915 22.0736 27.7146 19.9698C28.4224 18.9235 28.7548 18.2774 28.9453 17.7271C29.1055 17.2643 29.1707 16.8596 29.2621 16.292C29.2809 16.1749 29.3009 16.0508 29.3231 15.9178L30.3094 16.0822C30.2896 16.201 30.2712 16.3163 30.2532 16.4288C30.1617 17.0005 30.0813 17.5023 29.8903 18.0542C29.6589 18.7226 29.2726 19.4514 28.5429 20.5301Z" fill="#00E925"/>
</svg>
